<svg preserveAspectRatio="xMidYMid meet" data-bbox="0 0 262.412 236.633" xmlns="http://www.w3.org/2000/svg" viewBox="0 0 262 237" fill-rule="evenodd" clip-rule="evenodd" stroke-linejoin="round" stroke-miterlimit="2" data-type="ugc" role="presentation" aria-hidden="true" aria-label="">
    <g transform="translate(1745.21 -992.497)">
        <path fill="none" d="M-1483.583 992.497v236.134h-261.627V992.497h261.627z"></path>
        <clipPath id="7128c30a-1cad-4d36-b26c-1288a229dde2_comp-kk2o699z">
            <path d="M-1483.583 992.497v236.134h-261.627V992.497h261.627z"></path>
        </clipPath>
        <g clip-path="url(#7128c30a-1cad-4d36-b26c-1288a229dde2_comp-kk2o699z)">
            <path fill="#ffffff" d="M-1577.939 1028.669c0 19.701-15.97 35.672-35.672 35.672-19.701 0-35.672-15.97-35.672-35.672 0-19.701 15.97-35.672 35.672-35.672 19.701 0 35.672 15.97 35.672 35.672z"></path>
            <path fill="#ffffff" d="M-1673.08 1193.458c0 19.701-15.97 35.672-35.672 35.672-19.701 0-35.672-15.97-35.672-35.672 0-19.701 15.97-35.672 35.672-35.672 19.701 0 35.672 15.97 35.672 35.672z"></path>
            <path fill="#ffffff" d="M-1482.798 1193.458c0 19.701-15.97 35.672-35.672 35.672-19.701 0-35.672-15.97-35.672-35.672 0-19.701 15.97-35.672 35.672-35.672 19.701 0 35.672 15.97 35.672 35.672z"></path>
            <path fill="#ffffff" d="M-1586.292 1132.952c0 15.09-12.233 27.324-27.324 27.324-15.091 0-27.325-12.233-27.325-27.324 0-15.09 12.233-27.324 27.325-27.324 15.09 0 27.324 12.232 27.324 27.324z"></path>
        </g>
    </g>
</svg>